# xmcd CD database file
# Copyright (C) 1996 Ti Kan
#
# Track frame offsets:
#	150
#	21438
#	45615
#	67370
#	90978
#	111555
#	132782
#	158162
#	183812
#	210187
#	233310
#	257527
#	272944
# Disc length: 3846 seconds
#
# Revision: 1
# Processed by: cddbd v1.4b42PL0 Copyright (c) Steve Scherf et al.
# Submitted via: CDCOPY 4.900
#
DISCID=ab0f040d
DTITLE=葉佩雯 - RPG
DYEAR=1900
DGENRE=
TTITLE0=Wonderful World
TTITLE1=RPG(角色扮演遊戲)
TTITLE2=In Your Arms
TTITLE3=DEPARTURES
TTITLE4=蘭桂坊的傾斜度
TTITLE5=Dreaming I was Dreaming(夢樂園)
TTITLE6=What I Hold (Is Your Love)給我空間
TTITLE7=Can you celebrate
TTITLE8=Feel Like dance(只想起)
TTITLE9=Heart Beat(講再見)
TTITLE10=Can't stop falling in love(一場誤會)
TTITLE11=相信愛
TTITLE12=相信愛(maiden mix)
EXTD=
EXTT0=
EXTT1=
EXTT2=
EXTT3=
EXTT4=
EXTT5=
EXTT6=
EXTT7=
EXTT8=
EXTT9=
EXTT10=
EXTT11=
EXTT12=
PLAYORDER=
